<?xml version="1.0" encoding="UTF-8"?><svg id="Layer_2" xmlns="http://www.w3.org/2000/svg" viewBox="0 0 324.82 113.06"><defs><style>.cls-1{fill:#fff;}.cls-2{fill:#5d9dd5;}</style></defs><g id="Layer_1-2"><path class="cls-2" d="m0,6.99v99.08c0,3.86,3.13,6.99,6.99,6.99h65.51c3.86,0,6.99-3.13,6.99-6.99V6.99c0-3.86-3.13-6.99-6.99-6.99H6.99C3.13,0,0,3.13,0,6.99Zm33.81,87.9c-2.76,3.31-7.11,5.24-11.87,4.6-5.86-.79-10.57-5.62-11.21-11.5-.53-4.86,1.61-9.25,5.13-11.9,2.74-2.11,6.37-3.12,10.21-2.47,5.51.94,9.89,5.5,10.64,11.04.54,3.91-.64,7.52-2.89,10.22Zm3.03-30.43c0,.48-.4.89-.89.87-8.23-.28-15.5-4.35-20.1-10.53-3.27-4.36-5.19-9.78-5.19-15.64s1.93-11.28,5.19-15.65c1.51-2.02,3.3-3.82,5.33-5.33,4.04-3.03,9-4.93,14.38-5.18.12,0,.26-.01.39-.01h.03c.47,0,.86.4.86.89v50.59Zm26.77,24.61c-1.66,2.24-3.7,4.21-6,5.82-4.02,2.81-8.86,4.53-14.1,4.71h-.04c-.42,0-.73-.29-.83-.66v-51.02c.1-.39.46-.68.87-.66,8.23.28,15.5,4.35,20.1,10.53,3.27,4.38,5.19,9.79,5.19,15.65s-1.93,11.28-5.19,15.64Zm5.19-34.57c0,.65-.83.94-1.22.42-1.19-1.57-2.52-3.01-3.98-4.31-3.01-2.71-6.55-4.86-10.44-6.25-3.09-1.11-6.4-1.75-9.86-1.83-.37,0-.67-.31-.67-.68v-20.11c0-.61.73-.93,1.18-.48l23.1,23.1,1.68,1.68c.13.13.21.31.21.5v7.96Zm0-17.27c0,.62-.75.93-1.19.49l-23.54-23.54c-.44-.44-.13-1.19.49-1.19h23.54c.38,0,.69.31.69.69v23.55Z"/><path class="cls-1" d="m138.18,30.82c0,11.82-7.51,20.44-20.12,20.44-11.69,0-20.05-6.99-20.05-19.92h8.49c0,7.84,3.79,11.82,11.56,11.82s11.5-5.42,11.5-12.35V12.66h-13.78V4.62h22.41v26.2Z"/><path class="cls-1" d="m174.64,18.15h7.64v32.2h-7.51l-.39-4.7c-1.83,3.79-6.86,5.62-10.45,5.68-9.54.06-16.59-5.81-16.59-17.11s7.38-16.92,16.79-16.85c4.31,0,8.43,2.03,10.26,5.23l.26-4.44Zm-19.33,16.07c0,6.14,4.25,9.8,9.54,9.8,12.54,0,12.54-19.53,0-19.53-5.29,0-9.54,3.59-9.54,9.73Z"/><path class="cls-1" d="m215.21,50.35v-17.24c0-4.25-2.22-8.1-6.6-8.1s-6.86,3.85-6.86,8.1v17.24h-7.97V18.08h7.38l.59,3.92c1.7-3.26,5.42-4.44,8.49-4.44,3.85,0,7.71,1.57,9.54,6.01,2.87-4.57,6.6-5.88,10.78-5.88,9.14,0,13.65,5.62,13.65,15.29v17.38h-7.97v-17.38c0-4.25-1.76-7.84-6.07-7.84s-6.99,3.72-6.99,7.97v17.24h-7.97Z"/><path class="cls-1" d="m261.78,37.09c.52,3.98,3.98,6.86,9.6,6.86,2.94,0,6.79-1.11,8.62-3l5.1,5.03c-3.4,3.53-8.95,5.23-13.85,5.23-11.11,0-17.7-6.86-17.7-17.18s6.66-16.85,17.11-16.85,17.51,6.66,16.27,19.92h-25.15Zm17.51-6.6c-.52-4.18-3.79-6.27-8.36-6.27-4.31,0-7.84,2.09-9.01,6.27h17.38Z"/><path class="cls-1" d="m318.88,26.7c-2.29-2.15-4.9-2.87-7.97-2.87-3.79,0-5.88,1.18-5.88,3.2s1.89,3.27,6.01,3.53c6.07.39,13.78,1.76,13.78,10.32,0,5.68-4.64,10.58-13.85,10.58-5.1,0-10.19-.85-14.9-5.75l3.92-5.68c2.29,2.55,7.51,4.44,11.1,4.51,3.01.06,5.81-1.5,5.81-3.85,0-2.22-1.83-3.14-6.4-3.4-6.07-.46-13.32-2.68-13.32-9.99s7.71-10.06,13.59-10.06c5.03,0,8.82.98,12.54,4.25l-4.44,5.23Z"/><path class="cls-1" d="m176.08,72.37c-1.57-2.61-5.88-5.09-10.84-5.09-6.4,0-9.47,2.68-9.47,6.07,0,3.98,4.7,5.09,10.19,5.75,9.54,1.18,18.42,3.66,18.42,14.57,0,10.19-9.01,14.57-19.21,14.57-9.34,0-16.53-2.87-19.92-11.24l7.18-3.72c2.03,5.03,7.32,7.25,12.87,7.25s10.52-1.89,10.52-6.86c0-4.31-4.51-6.07-10.58-6.73-9.34-1.11-17.96-3.59-17.96-13.85,0-9.41,9.28-13.26,17.7-13.33,7.12,0,14.5,2.02,17.96,9.08l-6.86,3.53Z"/><path class="cls-1" d="m227.27,91.45c0,9.28-6.34,16.79-16.79,16.79s-16.72-7.51-16.72-16.79,6.4-16.79,16.66-16.79,16.85,7.58,16.85,16.79Zm-25.54,0c0,4.9,2.94,9.47,8.75,9.47s8.75-4.57,8.75-9.47-3.4-9.54-8.75-9.54c-5.75,0-8.75,4.7-8.75,9.54Z"/><path class="cls-1" d="m244.22,50.35v57.42h-7.97v-57.42h7.97Z"/><path class="cls-1" d="m261.78,94.32c.52,3.98,3.98,6.86,9.6,6.86,2.94,0,6.79-1.11,8.62-3l5.09,5.03c-3.4,3.53-8.95,5.23-13.85,5.23-11.1,0-17.7-6.86-17.7-17.18s6.66-16.85,17.11-16.85,17.51,6.66,16.27,19.92h-25.15Zm17.51-6.6c-.52-4.18-3.79-6.27-8.36-6.27-4.31,0-7.84,2.09-9.02,6.27h17.38Z"/></g></svg>